<?xml version="1.0" encoding="utf-8"?>
<!-- Generator: Adobe Illustrator 15.0.2, SVG Export Plug-In . SVG Version: 6.00 Build 0)  -->
<!DOCTYPE svg PUBLIC "-//W3C//DTD SVG 1.1//EN" "http://www.w3.org/Graphics/SVG/1.1/DTD/svg11.dtd">
<svg version="1.1" id="Layer_1" xmlns="http://www.w3.org/2000/svg" xmlns:xlink="http://www.w3.org/1999/xlink" x="0px" y="0px"
	 width="160.112px" height="12.688px" viewBox="0 0 160.112 12.688" enable-background="new 0 0 160.112 12.688"
	 xml:space="preserve">
<g>
	<path d="M0,0.559c0-0.171,0.152-0.306,0.321-0.306h0.423l7.345,8.492h0.017V0.744c0-0.169,0.135-0.321,0.321-0.321H9.51
		c0.169,0,0.322,0.152,0.322,0.321V12.13c0,0.168-0.153,0.305-0.322,0.305H9.071L1.726,3.701H1.708v8.243
		c0,0.169-0.135,0.321-0.321,0.321H0.321C0.152,12.266,0,12.113,0,11.944V0.559z"/>
	<path d="M19.142,11.91l5.195-11.387c0.051-0.101,0.203-0.185,0.288-0.185h0.169c0.084,0,0.237,0.084,0.288,0.185l5.161,11.387
		c0.102,0.22-0.033,0.439-0.287,0.439H28.89c-0.204,0-0.322-0.102-0.389-0.254l-1.049-2.319h-5.535
		c-0.338,0.779-0.693,1.541-1.032,2.319c-0.051,0.118-0.187,0.254-0.39,0.254H19.43C19.176,12.35,19.04,12.13,19.142,11.91z
		 M26.809,8.321l-2.082-4.637h-0.084l-2.065,4.637H26.809z"/>
	<path d="M39.553,0.744c0-0.169,0.135-0.321,0.321-0.321h3.859c2.081,0,3.791,1.689,3.791,3.735c0,2.1-1.709,3.809-3.773,3.809
		h-2.454v3.978c0,0.169-0.153,0.321-0.322,0.321h-1.1c-0.186,0-0.321-0.152-0.321-0.321V0.744z M43.631,6.309
		c1.168,0,2.15-0.948,2.15-2.168c0-1.148-0.982-2.028-2.15-2.028h-2.335v4.196H43.631z"/>
	<path d="M62.435,0.253c3.385,0,6.092,2.722,6.092,6.105c0,3.386-2.707,6.076-6.092,6.076c-3.384,0-6.075-2.69-6.075-6.076
		C56.36,2.975,59.051,0.253,62.435,0.253z M62.435,10.742c2.419,0,4.4-1.963,4.4-4.384c0-2.402-1.981-4.415-4.4-4.415
		c-2.402,0-4.383,2.013-4.383,4.415C58.052,8.779,60.033,10.742,62.435,10.742z"/>
	<path d="M78.564,0.744c0-0.169,0.135-0.321,0.322-0.321h1.117c0.169,0,0.32,0.152,0.32,0.321v9.946h4.588
		c0.186,0,0.321,0.153,0.321,0.323v0.931c0,0.169-0.136,0.321-0.321,0.321h-6.026c-0.187,0-0.322-0.152-0.322-0.321V0.744z"/>
	<path d="M94.626,0.744c0-0.169,0.137-0.321,0.322-0.321h6.77c0.187,0,0.322,0.152,0.322,0.321V1.69
		c0,0.168-0.136,0.319-0.322,0.319h-5.348v3.452h4.519c0.169,0,0.322,0.153,0.322,0.321V6.73c0,0.187-0.153,0.322-0.322,0.322
		h-4.519v3.638h5.348c0.187,0,0.322,0.153,0.322,0.323v0.931c0,0.169-0.136,0.321-0.322,0.321h-6.77
		c-0.186,0-0.322-0.152-0.322-0.321V0.744z"/>
	<path d="M117.375,0.253c3.385,0,6.092,2.722,6.092,6.105c0,3.386-2.707,6.076-6.092,6.076s-6.076-2.69-6.076-6.076
		C111.298,2.975,113.99,0.253,117.375,0.253z M117.375,10.742c2.42,0,4.399-1.963,4.399-4.384c0-2.402-1.979-4.415-4.399-4.415
		c-2.403,0-4.384,2.013-4.384,4.415C112.991,8.779,114.971,10.742,117.375,10.742z"/>
	<path d="M133.504,0.559c0-0.171,0.151-0.306,0.321-0.306h0.423l7.346,8.492h0.017V0.744c0-0.169,0.135-0.321,0.321-0.321h1.083
		c0.17,0,0.321,0.152,0.321,0.321V12.13c0,0.168-0.151,0.305-0.321,0.305h-0.439l-7.345-8.733h-0.017v8.243
		c0,0.169-0.137,0.321-0.322,0.321h-1.066c-0.17,0-0.321-0.152-0.321-0.321V0.559z"/>
	<g>
		<path d="M152.286,10.733c0.159-0.231,0.3-0.494,0.461-0.726c0.156-0.231,0.402-0.3,0.598-0.141
			c0.104,0.087,1.465,1.215,2.818,1.215c1.218,0,1.995-0.739,1.995-1.637c0-1.058-0.918-1.726-2.662-2.451
			c-1.8-0.76-3.21-1.693-3.21-3.735c0-1.374,1.059-3.259,3.86-3.259c1.763,0,3.086,0.916,3.262,1.04
			c0.141,0.086,0.283,0.335,0.105,0.598c-0.141,0.212-0.299,0.457-0.44,0.668c-0.141,0.231-0.369,0.333-0.616,0.177
			c-0.125-0.069-1.358-0.882-2.38-0.882c-1.481,0-1.993,0.937-1.993,1.585c0,1.006,0.777,1.623,2.24,2.223
			c2.046,0.826,3.788,1.798,3.788,3.947c0,1.833-1.637,3.332-3.929,3.332c-2.152,0-3.506-1.128-3.792-1.393
			C152.234,11.154,152.112,11.029,152.286,10.733z"/>
	</g>
</g>
</svg>
